<svg xmlns="http://www.w3.org/2000/svg" width="20" height="20" viewBox="0 0 20 20">
  <defs>
    <style>
      .cls-1 {
        fill: #afb0c0;
        fill-rule: evenodd;
      }
    </style>
  </defs>
  <path id="Quests_Icon" data-name="Quests Icon" class="cls-1" d="M40,486.711l1.774,3.814,0.452,0.971,1.058,0.162,4.138,0.637-3.07,3.175-0.7.721,0.16,0.988,0.7,4.327-3.494-1.947-0.965-.538-0.055.03-0.055-.03-0.965.538-3.494,1.947,0.7-4.327,0.16-.988-0.7-.721L32.578,492.3l4.138-.637,1.058-.162,0.451-.971L40,486.711M40.029,484A0.142,0.142,0,0,0,40,484a0.144,0.144,0,0,0-.029,0,1.441,1.441,0,0,0-1.3.834l-2.256,4.848-5.189.8a1.455,1.455,0,0,0-.813,2.449l3.8,3.931-0.882,5.454a1.455,1.455,0,0,0,.591,1.419,1.426,1.426,0,0,0,1.526.084l4.507-2.511L40,501.331l0.046-.025,4.506,2.511a1.428,1.428,0,0,0,1.527-.084,1.455,1.455,0,0,0,.591-1.419l-0.882-5.454,3.8-3.931a1.455,1.455,0,0,0-.814-2.449l-5.189-.8-2.256-4.848a1.441,1.441,0,0,0-1.3-.834h0ZM39,495H37v-2h2v2Zm4,0H41v-2h2v2Z" transform="translate(-30 -484)"/>
</svg>
