<svg xmlns="http://www.w3.org/2000/svg" width="20" height="20" viewBox="0 0 20 20">
  <defs>
    <style>
      .cls-1 {
        fill: #23d2e2;
        fill-rule: evenodd;
      }
    </style>
  </defs>
  <path id="Badges_Icon" data-name="Badges Icon" class="cls-1" d="M40,432a5,5,0,1,1-5,5,5.006,5.006,0,0,1,5-5m0-2a7,7,0,1,0,7,7,7,7,0,0,0-7-7h0Zm-6.094.391L32.651,426h3.84l0.7,2.453a8.979,8.979,0,0,1,1.963-.41L38,424H30l2.36,8.26A9,9,0,0,1,33.906,430.39Zm8.9-1.938,0.7-2.453h3.84l-1.255,4.391a8.989,8.989,0,0,1,1.546,1.869L50,424H42l-1.155,4.043A8.975,8.975,0,0,1,42.808,428.452Z" transform="translate(-30 -424)"/>
</svg>
