<svg xmlns="http://www.w3.org/2000/svg" width="20" height="20" viewBox="0 0 20 20">
  <defs>
    <style>
      .cls-1 {
        fill: #afb0c0;
        fill-rule: evenodd;
      }
    </style>
  </defs>
  <path id="Forums_Icon" data-name="Forums Icon" class="cls-1" d="M46,664H34a3.8,3.8,0,0,0-4,3.556v8.889A3.8,3.8,0,0,0,34,680h2l4,4,4-4h2a3.8,3.8,0,0,0,4-3.555v-8.889A3.8,3.8,0,0,0,46,664Zm2,12.445A1.845,1.845,0,0,1,46,678H43.172l-0.586.586L40,681.171l-2.586-2.586L36.829,678H34a1.845,1.845,0,0,1-2-1.555V672H48v4.445ZM32,670v-2.444A1.845,1.845,0,0,1,34,666H46a1.845,1.845,0,0,1,2,1.556V670H32Zm2-1h2v-2H34v2Zm6,0h2v-2H40v2Zm-3,0h2v-2H37v2Z" transform="translate(-30 -664)"/>
</svg>
