<svg xmlns="http://www.w3.org/2000/svg" width="20" height="18" viewBox="0 0 20 18">
  <defs>
    <style>
      .cls-1 {
        fill: #afb0c0;
        fill-rule: evenodd;
      }
    </style>
  </defs>
  <path id="Streams_Icon" data-name="Streams Icon" class="cls-1" d="M46,547a2,2,0,0,1,2,2v10a2,2,0,0,1-2,2H34a2,2,0,0,1-2-2V549a2,2,0,0,1,2-2H46m0-2H34a4,4,0,0,0-4,4v10a4,4,0,0,0,4,4H46a4,4,0,0,0,4-4V549a4,4,0,0,0-4-4h0Zm-7.6,6a0.692,0.692,0,0,1,.347.115l3.908,2.4a0.522,0.522,0,0,1,.02.971l-3.928,2.4A0.678,0.678,0,0,1,38.4,557a0.481,0.481,0,0,1-.4-0.591v-4.816A0.482,0.482,0,0,1,38.4,551m0-2a2.449,2.449,0,0,0-2.4,2.593v4.816A2.448,2.448,0,0,0,38.4,559a2.643,2.643,0,0,0,1.386-.406l3.932-2.4A2.561,2.561,0,0,0,45,554.014a2.6,2.6,0,0,0-1.3-2.21l-3.9-2.394A2.654,2.654,0,0,0,38.4,549h0Z" transform="translate(-30 -545)"/>
</svg>
