<svg xmlns="http://www.w3.org/2000/svg" width="28" height="40" viewBox="0 0 28 40">
  <defs>
    <style>
      .cls-1 {
        fill: #fff;
        fill-rule: evenodd;
      }
    </style>
  </defs>
  <path id="Logo" class="cls-1" d="M52.762,47.278s-0.136,9.258-9.688,11.29A3.011,3.011,0,0,1,42.1,60L40,58V48.16l2.97-2.828-2.1-2,2.1-2-2.1-2,2.1-2L40,34.5V20.012L40.015,20a7.813,7.813,0,0,1,1.19,1.8c0.34,0.839,1.445,1.086,2.3,1.537h0A47.379,47.379,0,0,0,42.8,34a60.837,60.837,0,0,1,3.5-8.667A17.43,17.43,0,0,1,53.3,40a4.244,4.244,0,0,0-.7.667A5.131,5.131,0,0,1,49.1,42a16.527,16.527,0,0,1,3.827,1.844l0.005,0.049a2.226,2.226,0,0,1,.244.145A1.891,1.891,0,0,1,54,45.3,2.576,2.576,0,0,1,52.762,47.278ZM44.2,50a2.5,2.5,0,0,1-2.059.829L42.1,54c6.649,0,7.7-8,7.7-8C47.438,46.119,46.284,47.471,44.2,50ZM40,44.665h0.7V46H40V44.665Zm0-4h0.7V42H40V40.665Zm0-4h0.7V38H40V36.665ZM27.237,47.278s0.136,9.258,9.688,11.29A3.009,3.009,0,0,0,37.9,60L40,58V48.16l-2.97-2.828,2.1-2-2.1-2,2.1-2-2.1-2L40,34.5V20.012L39.985,20a7.82,7.82,0,0,0-1.19,1.8c-0.34.839-1.445,1.086-2.295,1.537h0A47.373,47.373,0,0,1,37.2,34a60.811,60.811,0,0,0-3.5-8.667A17.43,17.43,0,0,0,26.7,40a4.246,4.246,0,0,1,.7.667A5.131,5.131,0,0,0,30.9,42a16.524,16.524,0,0,0-3.827,1.844l-0.005.049a2.226,2.226,0,0,0-.244.145A1.89,1.89,0,0,0,26,45.3,2.576,2.576,0,0,0,27.237,47.278ZM35.8,50a2.5,2.5,0,0,0,2.059.829L37.9,54c-6.649,0-7.7-8-7.7-8C32.562,46.119,33.716,47.471,35.8,50ZM40,44.665H39.3V46H40V44.665Zm0-4H39.3V42H40V40.665Zm0-4H39.3V38H40V36.665Z" transform="translate(-26 -20)"/>
</svg>
