<svg xmlns="http://www.w3.org/2000/svg" width="20" height="20" viewBox="0 0 20 20">
  <defs>
    <style>
      .cls-1 {
        fill: #8b88ff;
        fill-rule: evenodd;
      }
    </style>
  </defs>
  <path id="Messages_Icon" data-name="Messages Icon" class="cls-1" d="M1241,32a2,2,0,0,1,2,2v5a2,2,0,0,1-2,2h-4.25l-0.23.06L1231,42.437V34a2,2,0,0,1,2-2h8m0-2h-8a4,4,0,0,0-4,4V45l8-2h4a4,4,0,0,0,4-4V34a4,4,0,0,0-4-4h0Zm0,5.012a0.987,0.987,0,0,1-.99.988h-6.02a0.987,0.987,0,0,1-.99-0.988V34.987a0.987,0.987,0,0,1,.99-0.988h6.02a0.987,0.987,0,0,1,.99.988v0.024Zm-2,3.035a0.954,0.954,0,0,1-.95.953h-4.1a0.954,0.954,0,0,1-.95-0.953V37.952a0.954,0.954,0,0,1,.95-0.953h4.1a0.954,0.954,0,0,1,.95.953v0.095Zm7-2.906v2.136A2,2,0,0,1,1247,39v8.438l-5.52-1.379-0.23-.06H1237a1.978,1.978,0,0,1-1.72-1h-2.14a4,4,0,0,0,3.86,3h4l8,2V39A3.994,3.994,0,0,0,1246,35.141Z" transform="translate(-1229 -30)"/>
</svg>
