<svg xmlns="http://www.w3.org/2000/svg" width="18" height="20" viewBox="0 0 18 20">
  <defs>
    <style>
      .cls-1 {
        fill: #fff;
        fill-rule: evenodd;
      }
    </style>
  </defs>
  <path id="Notifications_Icon" data-name="Notifications Icon" class="cls-1" d="M1294,46h-16.03a1,1,0,0,1-.95-0.73,1.052,1.052,0,0,1,.39-1.158c0.01-.006,2.23-1.746,2.23-7.508a6.35,6.35,0,1,1,12.69,0c0,5.763,2.23,7.5,2.25,7.519a1.069,1.069,0,0,1,.37,1.158A1.006,1.006,0,0,1,1294,46Zm-13.94-2.064h11.85a14.961,14.961,0,0,1-1.58-7.332,4.344,4.344,0,1,0-8.68,0A14.828,14.828,0,0,1,1280.06,43.937ZM1285.98,50a3.6,3.6,0,0,1-1.65-.394,3.111,3.111,0,0,1-1.2-1.053,0.965,0.965,0,0,1,.44-1.408,1.285,1.285,0,0,1,1.62.384,0.874,0.874,0,0,0,.34.3,1.04,1.04,0,0,0,.69.083,0.886,0.886,0,0,0,.56-0.382,1.3,1.3,0,0,1,1.63-.381,0.964,0.964,0,0,1,.43,1.41,3.25,3.25,0,0,1-2.02,1.349A3.693,3.693,0,0,1,1285.98,50Z" transform="translate(-1277 -30)"/>
</svg>
