<svg xmlns="http://www.w3.org/2000/svg" width="20" height="20" viewBox="0 0 20 20">
  <defs>
    <style>
      .cls-1 {
        fill: #fff;
        fill-rule: evenodd;
      }
    </style>
  </defs>
  <path id="Settings_Icon" data-name="Settings Icon" class="cls-1" d="M1368,39a1,1,0,1,1-1,1,1,1,0,0,1,1-1m0-2a3,3,0,1,0,3,3,3,3,0,0,0-3-3h0Zm0.07,13a2.639,2.639,0,0,1-2.64-2.637,0.359,0.359,0,0,0-.23-0.37c-0.3-.127-0.34-0.052-0.44.046a2.672,2.672,0,0,1-3.77.042,2.61,2.61,0,0,1-.78-1.863,2.655,2.655,0,0,1,.77-1.865,0.381,0.381,0,0,0,.12-0.429,0.36,0.36,0,0,0-.33-0.222h-0.13a2.637,2.637,0,1,1,0-5.273,0.37,0.37,0,0,0,.37-0.229,0.384,0.384,0,0,0-.05-0.444,2.651,2.651,0,0,1-.04-3.77,2.7,2.7,0,0,1,3.73,0,0.349,0.349,0,0,0,.43.113,1.073,1.073,0,0,1,.15-0.054,0.351,0.351,0,0,0,.13-0.271V32.636a2.64,2.64,0,0,1,5.28,0,0.379,0.379,0,0,0,.21.39,0.348,0.348,0,0,0,.4-0.066,2.664,2.664,0,0,1,3.76-.042,2.622,2.622,0,0,1,.78,1.865,2.653,2.653,0,0,1-.77,1.865,0.382,0.382,0,0,0-.12.429,0.493,0.493,0,0,1,.06.158,0.337,0.337,0,0,0,.27.129h0.13a2.637,2.637,0,1,1,0,5.273,0.363,0.363,0,0,0-.38.21,0.343,0.343,0,0,0,.06.4,2.644,2.644,0,0,1,.04,3.769,2.7,2.7,0,0,1-3.73,0,0.354,0.354,0,0,0-.43-0.112,0.346,0.346,0,0,0-.22.322v0.136A2.637,2.637,0,0,1,1368.07,50ZM1365,44.938a2.458,2.458,0,0,1,2.43,2.327,0.662,0.662,0,0,0,.64.734,0.632,0.632,0,0,0,.63-0.637V47.224a2.338,2.338,0,0,1,1.43-2.154,2.392,2.392,0,0,1,2.58.475,0.621,0.621,0,0,0,.95.058,0.609,0.609,0,0,0,.19-0.454,0.628,0.628,0,0,0-.18-0.449,2.359,2.359,0,0,1,1.62-4.063A0.659,0.659,0,0,0,1376,40a0.641,0.641,0,0,0-.64-0.636h-0.14a2.345,2.345,0,0,1-2.15-1.424,1.047,1.047,0,0,1-.07-0.244,2.333,2.333,0,0,1,.55-2.405,0.717,0.717,0,0,0,.24-0.507,0.633,0.633,0,0,0-.19-0.449,0.648,0.648,0,0,0-.9,0,2.367,2.367,0,0,1-2.65.527,2.341,2.341,0,0,1-1.41-2.148A0.661,0.661,0,0,0,1368,32a0.641,0.641,0,0,0-.64.637v0.139a2.344,2.344,0,0,1-1.42,2.155,0.96,0.96,0,0,1-.25.07,2.377,2.377,0,0,1-2.4-.544,0.63,0.63,0,0,0-.96-0.058,0.645,0.645,0,0,0,0,.9,2.355,2.355,0,0,1,.53,2.649,2.317,2.317,0,0,1-2.13,1.48,0.666,0.666,0,0,0-.73.636,0.641,0.641,0,0,0,.64.636h0.14a2.364,2.364,0,0,1,1.68,4.006,0.639,0.639,0,1,0,.84.959A2.385,2.385,0,0,1,1365,44.938Z" transform="translate(-1358 -30)"/>
</svg>
