<svg xmlns="http://www.w3.org/2000/svg" width="18" height="20" viewBox="0 0 18 20">
  <defs>
    <style>
      .cls-1 {
        fill: #8b88ff;
        fill-rule: evenodd;
      }
    </style>
  </defs>
  <path id="Shopping_Bag_Icon" data-name="Shopping Bag Icon" class="cls-1" d="M1149.9,36a1.55,1.55,0,0,1,.41.557v0.017l0.68,11.42a0.048,0.048,0,0,1-.02.006h-13.94a0.048,0.048,0,0,1-.02-0.006l0.68-11.42V36.555a1.653,1.653,0,0,1,.4-0.556h11.81m0.18-2h-12.16c-1.11,0-2.23,1.562-2.23,2.455l-0.69,11.7A2.032,2.032,0,0,0,1137.02,50h13.95a2.034,2.034,0,0,0,2.03-1.846l-0.69-11.7c0-.893-1.12-2.455-2.23-2.455h0ZM1142,38V33.892A1.9,1.9,0,0,1,1143.89,32h0.16a1.941,1.941,0,0,1,1.95,1.893V38h2V33.892A3.89,3.89,0,0,0,1144.11,30h-0.22a3.89,3.89,0,0,0-3.89,3.893V38h2Z" transform="translate(-1135 -30)"/>
</svg>
